# xmcd
#
# Track frame offsets:
#	150
#	12768
#	25168
#	37851
#	52728
#	71499
#	79283
#	90717
#	101111
#	117069
#	127875
#	135404
#	147955
#	165607
#	181531
#
# Disc length: 2604 seconds
#
# Revision: 0
# Processed by: cddbd v1.5.1PL2 Copyright (c) Steve Scherf et al.
# Submitted via: dBpowerAMP V4.0
#
DISCID=b00a2a0f
DTITLE=Tommy Cash - A Musical Tribute to my brother Johnny Cash
DYEAR=1900
DGENRE=Country
TTITLE0=Folsom Prison Blues
TTITLE1=Ring of Fire
TTITLE2=Give My Love To Rose
TTITLE3=Passin' Through
TTITLE4=Sunday Morning Coming Down
TTITLE5=Five Feet High and Risin'
TTITLE6=Flesh and Blood
TTITLE7=Daddy Sang Bass
TTITLE8=Hurt
TTITLE9=Get Rhythm
TTITLE10=Hey Porter/Cry, Cry, Cry
TTITLE11=Orange Blossom Special
TTITLE12=Pickin Time/Don't Time Your Guns To Town
TTITLE13=Ragged Old Flag
TTITLE14=Man in Black
EXTD=
EXTT0=
EXTT1=
EXTT2=
EXTT3=
EXTT4=
EXTT5=
EXTT6=
EXTT7=
EXTT8=
EXTT9=
EXTT10=
EXTT11=
EXTT12=
EXTT13=
EXTT14=
PLAYORDER=
